<svg width="25" height="24" viewBox="0 0 25 24" fill="none" xmlns="http://www.w3.org/2000/svg">
<path d="M9.66671 19.5H6.50004C6.04171 19.5 5.64935 19.3368 5.32296 19.0104C4.99657 18.684 4.83337 18.2917 4.83337 17.8333V14.6667C5.50004 14.6667 6.08337 14.4549 6.58337 14.0312C7.08337 13.6076 7.33337 13.0694 7.33337 12.4167C7.33337 11.7639 7.08337 11.2257 6.58337 10.8021C6.08337 10.3785 5.50004 10.1667 4.83337 10.1667V7C4.83337 6.54167 4.99657 6.14931 5.32296 5.82292C5.64935 5.49653 6.04171 5.33333 6.50004 5.33333H9.83337C9.83337 4.75 10.0348 4.25694 10.4375 3.85417C10.8403 3.45139 11.3334 3.25 11.9167 3.25C12.5 3.25 12.9931 3.45139 13.3959 3.85417C13.7987 4.25694 14 4.75 14 5.33333H17.3334C17.7917 5.33333 18.1841 5.49653 18.5105 5.82292C18.8368 6.14931 19 6.54167 19 7V10.3333C19.5834 10.3333 20.0764 10.5347 20.4792 10.9375C20.882 11.3403 21.0834 11.8333 21.0834 12.4167C21.0834 13 20.882 13.4931 20.4792 13.8958C20.0764 14.2986 19.5834 14.5 19 14.5V17.8333C19 18.2917 18.8368 18.684 18.5105 19.0104C18.1841 19.3368 17.7917 19.5 17.3334 19.5H14.1667C14.1667 18.8056 13.948 18.2153 13.5105 17.7292C13.073 17.2431 12.5417 17 11.9167 17C11.2917 17 10.7605 17.2431 10.323 17.7292C9.88546 18.2153 9.66671 18.8056 9.66671 19.5Z" fill="#94A3B8"/>
</svg>
