<svg width="16" height="16" viewBox="0 0 16 16" fill="none" xmlns="http://www.w3.org/2000/svg">
<path d="M10.3333 9.33334H9.80667L9.62001 9.15334C10.42 8.22 10.8333 6.94667 10.6067 5.59334C10.2933 3.74001 8.74667 2.26001 6.88 2.03334C4.06 1.68667 1.68667 4.06 2.03334 6.88C2.26001 8.74667 3.74001 10.2933 5.59334 10.6067C6.94667 10.8333 8.22001 10.42 9.15334 9.62L9.33334 9.80667V10.3333L12.1667 13.1667C12.44 13.44 12.8867 13.44 13.16 13.1667C13.4333 12.8933 13.4333 12.4467 13.16 12.1733L10.3333 9.33334ZM6.33334 9.33334C4.67334 9.33334 3.33334 7.99334 3.33334 6.33334C3.33334 4.67334 4.67334 3.33334 6.33334 3.33334C7.99334 3.33334 9.33334 4.67334 9.33334 6.33334C9.33334 7.99334 7.99334 9.33334 6.33334 9.33334Z" fill="#94A3B8"/>
</svg>
